<svg width="47" height="47" viewBox="0 0 47 47" fill="none" xmlns="http://www.w3.org/2000/svg">
<g id="Layer_1" clip-path="url(#clip0_119_898)">
<path id="Vector" d="M39.7518 15.0277L37.9832 12.2835L40.6195 9.42305C38.3474 7.00449 35.5901 5.09317 32.528 3.81426L30.7802 7.29329L27.5877 6.60411L24.3951 5.91083L24.2373 2.01249C20.9195 1.90462 17.6166 2.50321 14.5476 3.7686L15.7723 7.48014L13.0239 9.24866L10.2797 11.0172L7.4193 8.37684C5.00254 10.6505 3.0915 13.4074 1.81051 16.4683L5.28954 18.2203L4.60037 21.4128L3.90707 24.6054L0.00872895 24.7632C-0.100511 28.0815 0.499616 31.385 1.76901 34.4529L5.47636 33.2074L7.24493 35.9558L9.0135 38.7L6.37725 41.5604C8.64839 43.979 11.4061 45.8891 14.4687 47.165L16.2206 43.6902L19.4091 44.3794L22.6016 45.0726L22.7635 48.971C26.0805 49.0797 29.3826 48.4796 32.4492 47.2107L31.2037 43.5033L33.952 41.7348L36.6962 39.9662L39.5567 42.6025C41.9752 40.3304 43.8865 37.5731 45.1654 34.511L41.6864 32.759L42.3756 29.5707L43.0689 26.3781L46.9672 26.2162C47.077 22.8991 46.4769 19.5969 45.207 16.5305L41.4996 17.7511L39.7518 15.0277ZM26.118 39.8085C23.292 40.323 20.3768 39.9884 17.7409 38.8469C15.1049 37.7055 12.8664 35.8083 11.3082 33.3952C9.74999 30.9821 8.94197 28.1612 8.98622 25.2891C9.03048 22.4169 9.92504 19.6224 11.5569 17.2584C13.1887 14.8944 15.4846 13.0671 18.1544 12.0074C20.8243 10.9477 23.7484 10.7031 26.5572 11.3045C29.366 11.9059 31.9336 13.3263 33.9355 15.3863C35.9374 17.4463 37.2839 20.0534 37.8047 22.8783C38.1512 24.7575 38.1236 26.6866 37.7235 28.5552C37.3234 30.4237 36.5587 32.1949 35.4732 33.7675C34.3876 35.3401 33.0026 36.6832 31.3973 37.7198C29.792 38.7564 27.998 39.4662 26.118 39.8085Z" fill="#196AE5"/>
<path id="Vector_2" d="M30.5143 20.3624L29.8334 19.4159L27.2055 22.0438L27.6455 22.7205C28.1375 23.4732 28.4243 24.3414 28.4774 25.2391C28.5305 26.1368 28.3482 27.0328 27.9484 27.8382C27.5486 28.6437 26.9452 29.3307 26.1981 29.8312C25.451 30.3317 24.5861 30.6283 23.6891 30.6915V26.8306L18.1094 32.4269L23.7057 38.1893V34.3906C25.3054 34.3249 26.8575 33.827 28.197 32.95C29.5365 32.0729 30.6134 30.8495 31.3134 29.4095C32.0133 27.9696 32.3102 26.3669 32.1724 24.7717C32.0347 23.1766 31.4674 21.6486 30.5309 20.35L30.5143 20.3624Z" fill="#196AE5"/>
<path id="Vector_3" d="M19.3549 28.3459C18.8632 27.5929 18.5766 26.7245 18.5236 25.8267C18.4706 24.9288 18.6529 24.0327 19.0526 23.227C19.4523 22.4213 20.0555 21.734 20.8025 21.233C21.5494 20.732 22.4143 20.4348 23.3114 20.3708V24.2359L28.9035 18.6396L23.3072 12.873V16.6634C21.7075 16.7292 20.1555 17.227 18.816 18.104C17.4765 18.9811 16.3995 20.2046 15.6996 21.6445C14.9996 23.0845 14.7027 24.6871 14.8405 26.2823C14.9783 27.8774 15.5455 29.4054 16.482 30.704L17.1629 31.6506L19.7908 29.0185L19.3549 28.3459Z" fill="#196AE5"/>
</g>
<defs>
<clipPath id="clip0_119_898">
<rect width="47" height="47" fill="white"/>
</clipPath>
</defs>
</svg>
