<svg width="46" height="46" viewBox="0 0 46 46" fill="none" xmlns="http://www.w3.org/2000/svg">
<g id="Group 1000003117">
<path id="Vector" d="M26.4286 19.8693V18.7004C26.4286 18.5454 26.3599 18.3967 26.2377 18.2871C26.1156 18.1775 25.9498 18.116 25.777 18.116H19.2619C19.0891 18.116 18.9234 18.1775 18.8012 18.2871C18.679 18.3967 18.6104 18.5454 18.6104 18.7004V19.8693C18.6127 20.0127 18.6738 20.1502 18.7819 20.2558C18.89 20.3614 19.0377 20.4277 19.1967 20.442V34.4686C19.0377 34.4829 18.89 34.5492 18.7819 34.6548C18.6738 34.7604 18.6127 34.898 18.6104 35.0413V36.2102C18.6104 36.3652 18.679 36.5139 18.8012 36.6235C18.9234 36.7331 19.0891 36.7946 19.2619 36.7946H25.777C25.9498 36.7946 26.1156 36.7331 26.2377 36.6235C26.3599 36.5139 26.4286 36.3652 26.4286 36.2102V35.0413C26.4262 34.898 26.3651 34.7604 26.257 34.6548C26.1489 34.5492 26.0012 34.4829 25.8422 34.4686V20.442C26.0012 20.4277 26.1489 20.3614 26.257 20.2558C26.3651 20.1502 26.4262 20.0127 26.4286 19.8693Z" fill="#196AE5"/>
<path id="Vector_2" d="M44.6714 40.7401H1.67121C1.32562 40.7401 0.99419 40.8632 0.749824 41.0824C0.505457 41.3016 0.368174 41.5989 0.368174 41.9089V45.4156C0.368174 45.5706 0.436816 45.7192 0.558999 45.8288C0.681182 45.9384 0.846899 46 1.01969 46H45.3229C45.4957 46 45.6614 45.9384 45.7836 45.8288C45.9058 45.7192 45.9744 45.5706 45.9744 45.4156V41.9089C45.9744 41.5989 45.8371 41.3016 45.5928 41.0824C45.3484 40.8632 45.017 40.7401 44.6714 40.7401ZM6.23183 36.0645V37.2334C6.23183 37.3884 6.30048 37.5371 6.42266 37.6467C6.54484 37.7563 6.71056 37.8179 6.88335 37.8179H13.3985C13.5713 37.8179 13.737 37.7563 13.8592 37.6467C13.9814 37.5371 14.05 37.3884 14.05 37.2334V36.0645C14.05 35.9095 13.9814 35.7609 13.8592 35.6513C13.737 35.5417 13.5713 35.4801 13.3985 35.4801V21.4536C13.5713 21.4536 13.737 21.392 13.8592 21.2824C13.9814 21.1728 14.05 21.0241 14.05 20.8691V19.7002C14.05 19.5452 13.9814 19.3966 13.8592 19.287C13.737 19.1774 13.5713 19.1158 13.3985 19.1158H6.88335C6.71056 19.1158 6.54484 19.1774 6.42266 19.287C6.30048 19.3966 6.23183 19.5452 6.23183 19.7002V20.8691C6.23183 21.0241 6.30048 21.1728 6.42266 21.2824C6.54484 21.392 6.71056 21.4536 6.88335 21.4536V35.4801C6.71056 35.4801 6.54484 35.5417 6.42266 35.6513C6.30048 35.7609 6.23183 35.9095 6.23183 36.0645ZM45.3229 11.2259L23.8228 0.156597C23.6247 0.0540067 23.4 0 23.1713 0C22.9426 0 22.7179 0.0540067 22.5198 0.156597L1.01969 11.2259C0.820843 11.3289 0.655858 11.4771 0.541447 11.6557C0.427037 11.8343 0.367263 12.0368 0.368174 12.2428V15.6559C0.368174 15.8109 0.436816 15.9596 0.558999 16.0692C0.681182 16.1788 0.846899 16.2404 1.01969 16.2404H45.3229C45.4957 16.2404 45.6614 16.1788 45.7836 16.0692C45.9058 15.9596 45.9744 15.8109 45.9744 15.6559V12.196C45.9664 11.9981 45.9024 11.8052 45.7884 11.6354C45.6744 11.4657 45.5142 11.3248 45.3229 11.2259ZM23.1713 13.0259C22.4291 13.0259 21.7035 12.8285 21.0864 12.4586C20.4692 12.0887 19.9882 11.563 19.7042 10.9478C19.4202 10.3327 19.3459 9.65584 19.4907 9.00283C19.6355 8.34982 19.9929 7.74999 20.5177 7.2792C21.0425 6.8084 21.7112 6.48778 22.4392 6.35789C23.1671 6.228 23.9217 6.29467 24.6074 6.54946C25.2931 6.80425 25.8792 7.23573 26.2916 7.78933C26.7039 8.34292 26.924 8.99378 26.924 9.65958C26.9103 10.5443 26.5089 11.3886 25.8066 12.0098C25.1043 12.631 24.1576 12.9793 23.1713 12.9792V13.0259ZM32.2925 36.1113V37.2802C32.2925 37.4352 32.3612 37.5838 32.4834 37.6934C32.6055 37.803 32.7713 37.8646 32.9441 37.8646H39.4592C39.632 37.8646 39.7977 37.803 39.9199 37.6934C40.0421 37.5838 40.1108 37.4352 40.1108 37.2802V36.1113C40.1108 35.9563 40.0421 35.8076 39.9199 35.698C39.7977 35.5884 39.632 35.5269 39.4592 35.5269V21.5003C39.632 21.5003 39.7977 21.4387 39.9199 21.3291C40.0421 21.2195 40.1108 21.0709 40.1108 20.9159V19.747C40.1108 19.592 40.0421 19.4433 39.9199 19.3337C39.7977 19.2241 39.632 19.1626 39.4592 19.1626H32.9441C32.7713 19.1626 32.6055 19.2241 32.4834 19.3337C32.3612 19.4433 32.2925 19.592 32.2925 19.747V20.9159C32.293 21.0492 32.3454 21.1782 32.4405 21.2806C32.5357 21.383 32.6677 21.4524 32.8138 21.4769V35.5035C32.6677 35.528 32.5357 35.5974 32.4405 35.6998C32.3454 35.8022 32.293 35.9312 32.2925 36.0645V36.1113Z" fill="#196AE5"/>
</g>
</svg>
