<svg width="18" height="19" viewBox="0 0 18 19" fill="none" xmlns="http://www.w3.org/2000/svg">
<path id="Vector" d="M10.0003 5.34237C12.1033 5.34237 13.0003 6.24198 13.0003 8.3511H15.0003C15.0003 5.11672 13.2253 3.33655 10.0003 3.33655V5.34237ZM13.4223 10.8012C13.2301 10.6261 12.9776 10.5326 12.7181 10.5407C12.4585 10.5487 12.2123 10.6576 12.0313 10.8443L9.63828 13.3125C9.06228 13.2022 7.90428 12.8401 6.71228 11.6477C5.52028 10.4512 5.15928 9.28682 5.05228 8.71315L7.51128 6.31219C7.69769 6.13079 7.80642 5.88376 7.81444 5.62339C7.82247 5.36302 7.72917 5.10974 7.55428 4.91714L3.85928 0.842317C3.68432 0.649114 3.44116 0.531921 3.18143 0.515629C2.92171 0.499338 2.66588 0.58523 2.46828 0.755064L0.298282 2.62148C0.125393 2.7955 0.0222015 3.02711 0.00828196 3.27237C-0.00671804 3.52309 -0.292718 9.46232 4.29928 14.0697C8.30528 18.0863 13.3233 18.3802 14.7053 18.3802C14.9073 18.3802 15.0313 18.3742 15.0643 18.3722C15.3088 18.3584 15.5396 18.2545 15.7123 18.0803L17.5723 15.903C17.7417 15.705 17.8276 15.4485 17.8115 15.188C17.7954 14.9275 17.6788 14.6836 17.4863 14.508L13.4223 10.8012Z" fill="white"/>
</svg>
