<svg width="24" height="19" viewBox="0 0 24 19" fill="none" xmlns="http://www.w3.org/2000/svg">
<g id="Group 1000001776">
<g id="Group 1000001777">
<path id="Vector" d="M6.17595 8.49914C5.33 8.50199 4.49903 8.72254 3.76299 9.13954C4.79925 6.45728 6.51796 4.09209 8.74902 2.27804C8.87667 2.17292 8.98236 2.04368 9.06007 1.89771C9.13777 1.75173 9.18596 1.59189 9.20189 1.42729C9.21782 1.26269 9.20117 1.09657 9.1529 0.938407C9.10463 0.780243 9.02568 0.633137 8.92055 0.505486C8.81543 0.377835 8.68619 0.272139 8.54022 0.194434C8.39425 0.116729 8.2344 0.0685371 8.0698 0.0526084C7.90521 0.0366796 7.73908 0.0533272 7.58092 0.1016C7.42276 0.149872 7.27565 0.228823 7.148 0.333948C2.57366 4.05059 0.538086 9.19672 0.538086 12.3873C0.545968 13.5155 0.882156 14.6169 1.5056 15.5571C2.12905 16.4974 3.01278 17.2358 4.04889 17.6821C4.71944 18.0069 5.45376 18.1788 6.19882 18.1853C6.85462 18.2172 7.51007 18.1155 8.12541 17.8865C8.74075 17.6575 9.30318 17.3059 9.77858 16.8531C10.254 16.4002 10.6325 15.8555 10.8911 15.252C11.1497 14.6485 11.283 13.9988 11.283 13.3422C11.283 12.6856 11.1497 12.0359 10.8911 11.4324C10.6325 10.8289 10.254 10.2842 9.77858 9.83136C9.30318 9.3785 8.74075 9.02691 8.12541 8.7979C7.51007 8.5689 6.85462 8.46726 6.19882 8.49914H6.17595Z" fill="#4C40F7"/>
<path id="Vector_2" d="M18.9162 8.49926C18.0701 8.50109 17.2389 8.7217 16.5032 9.13967C17.5391 6.46021 19.2533 4.09581 21.4778 2.27817C21.6171 2.1778 21.7343 2.05001 21.8223 1.90264C21.9103 1.75528 21.9672 1.59147 21.9895 1.42129C22.0118 1.25111 21.9991 1.07816 21.9521 0.913085C21.905 0.748013 21.8247 0.594309 21.7161 0.461433C21.6075 0.328558 21.4728 0.219321 21.3203 0.140446C21.1679 0.0615715 21.0009 0.0147285 20.8297 0.00279838C20.6585 -0.00913173 20.4866 0.0141038 20.3247 0.0710758C20.1628 0.128048 20.0143 0.21755 19.8882 0.334076C15.3139 4.05072 13.2783 9.19685 13.2783 12.3875C13.2837 13.5028 13.6101 14.593 14.2185 15.5279C14.8269 16.4627 15.6915 17.2027 16.7091 17.6594C17.3966 17.9937 18.1517 18.1659 18.9162 18.1625C19.572 18.1944 20.2274 18.0928 20.8428 17.8638C21.4581 17.6348 22.0205 17.2832 22.4959 16.8303C22.9714 16.3775 23.3498 15.8328 23.6084 15.2293C23.867 14.6258 24.0004 13.976 24.0004 13.3195C24.0004 12.6629 23.867 12.0132 23.6084 11.4097C23.3498 10.8062 22.9714 10.2615 22.4959 9.80861C22.0205 9.35575 21.4581 9.00416 20.8428 8.77516C20.2274 8.54616 19.572 8.44452 18.9162 8.47639V8.49926Z" fill="#4C40F7"/>
</g>
</g>
</svg>
