<svg width="798" height="102" viewBox="0 0 798 102" fill="none" xmlns="http://www.w3.org/2000/svg">
<path d="M13.2793 23.95L0.779297 1H9.8293L16.0293 13C16.6293 14.15 17.0293 15.05 17.4293 16C17.8793 15.1 18.2793 14.15 18.8793 12.95L25.0793 1H33.8793L21.3793 23.95V38H13.2793V23.95ZM30.3938 25.45C30.3938 17.55 36.1937 12.25 44.1938 12.25C52.1438 12.25 57.9438 17.55 57.9438 25.45C57.9438 33.35 52.1438 38.6 44.1938 38.6C36.1937 38.6 30.3938 33.35 30.3938 25.45ZM38.1438 25.4C38.1438 29.2 40.5938 31.7 44.1938 31.7C47.7438 31.7 50.1938 29.2 50.1938 25.4C50.1938 21.65 47.7438 19.15 44.1938 19.15C40.5938 19.15 38.1438 21.65 38.1438 25.4ZM78.4219 13H86.1219V38H78.8719L78.3719 35.2C76.8219 37.25 73.7219 38.65 70.7219 38.65C65.0219 38.65 61.5219 34.85 61.5219 28.7V13H69.2219V25.9C69.2219 30 70.6219 31.8 73.7719 31.8C77.0719 31.8 78.4219 30.1 78.4219 26V13ZM109.1 13V20.25H106.65C102.25 20.25 99.6 22.2 99.6 27.15V38H91.9V13.05H99.15L99.55 16.75C100.6 14.3 102.8 12.65 106.15 12.65C107.05 12.65 108.05 12.75 109.1 13ZM143.176 38.6C132.076 38.6 125.126 31.25 125.126 19.55C125.126 8 132.476 0.399998 143.526 0.399998C152.776 0.399998 159.426 5.7 160.576 14H152.026C150.926 10.3 147.776 8.2 143.326 8.2C137.326 8.2 133.676 12.45 133.676 19.5C133.676 26.45 137.376 30.8 143.326 30.8C147.876 30.8 151.226 28.55 152.226 24.9H160.626C159.326 33.15 152.426 38.6 143.176 38.6ZM172.155 38.65C166.855 38.65 163.555 35.55 163.555 30.65C163.555 26.05 166.805 23.2 172.805 22.75L179.805 22.2V21.8C179.805 19.35 178.305 18.05 175.555 18.05C172.305 18.05 170.555 19.3 170.555 21.55H164.155C164.155 15.9 168.805 12.2 175.955 12.2C183.205 12.2 187.305 16.25 187.305 23.4V38H180.505L180.005 34.7C179.205 37 175.905 38.65 172.155 38.65ZM174.855 32.95C177.805 32.95 179.855 31.5 179.855 28.65V27.3L175.955 27.65C172.605 27.95 171.405 28.7 171.405 30.3C171.405 32.1 172.505 32.95 174.855 32.95ZM210.028 13V20.25H207.578C203.178 20.25 200.528 22.2 200.528 27.15V38H192.828V13.05H200.078L200.478 16.75C201.528 14.3 203.728 12.65 207.078 12.65C207.978 12.65 208.978 12.75 210.028 13ZM224.789 38.65C217.239 38.65 211.839 33.15 211.839 25.45C211.839 17.65 217.089 12.2 224.639 12.2C232.489 12.2 237.389 17.35 237.389 25.5V27.45L219.239 27.55C219.689 30.85 221.539 32.4 224.939 32.4C227.839 32.4 229.889 31.35 230.439 29.55H237.489C236.589 35.1 231.639 38.65 224.789 38.65ZM224.689 18.45C221.639 18.45 219.939 19.8 219.339 22.8H229.739C229.739 20.15 227.789 18.45 224.689 18.45ZM253.549 38.65C245.999 38.65 240.599 33.15 240.599 25.45C240.599 17.65 245.849 12.2 253.399 12.2C261.249 12.2 266.149 17.35 266.149 25.5V27.45L247.999 27.55C248.449 30.85 250.299 32.4 253.699 32.4C256.599 32.4 258.649 31.35 259.199 29.55H266.249C265.349 35.1 260.399 38.65 253.549 38.65ZM253.449 18.45C250.399 18.45 248.699 19.8 248.099 22.8H258.499C258.499 20.15 256.549 18.45 253.449 18.45ZM287.909 13V20.25H285.459C281.059 20.25 278.409 22.2 278.409 27.15V38H270.709V13.05H277.959L278.359 16.75C279.409 14.3 281.609 12.65 284.959 12.65C285.859 12.65 286.859 12.75 287.909 13ZM322.635 8C315.935 8 312.485 12.7 312.485 19.85C312.485 27.3 316.685 31 322.585 31C328.685 31 331.385 27.7 331.735 23.85H321.935V16.75H339.335V38H332.385L331.935 34.65C329.935 37 325.935 38.55 321.535 38.55C311.185 38.55 303.935 30.95 303.935 19.6C303.935 8.45 311.385 0.399998 322.835 0.399998C331.685 0.399998 338.485 5.6 339.335 13.6H330.835C329.885 9.7 326.485 8 322.635 8ZM362.274 13V20.25H359.824C355.424 20.25 352.774 22.2 352.774 27.15V38H345.074V13.05H352.324L352.724 16.75C353.774 14.3 355.974 12.65 359.324 12.65C360.224 12.65 361.224 12.75 362.274 13ZM364.085 25.45C364.085 17.55 369.885 12.25 377.885 12.25C385.835 12.25 391.635 17.55 391.635 25.45C391.635 33.35 385.835 38.6 377.885 38.6C369.885 38.6 364.085 33.35 364.085 25.45ZM371.835 25.4C371.835 29.2 374.285 31.7 377.885 31.7C381.435 31.7 383.885 29.2 383.885 25.4C383.885 21.65 381.435 19.15 377.885 19.15C374.285 19.15 371.835 21.65 371.835 25.4ZM400.48 38L392.43 13H400.53L402.83 21.15C403.43 23.3 403.98 25.75 404.38 28.25C404.83 25.6 405.08 24.65 406.18 21.15L408.73 13H416.63L418.98 21.15C419.23 22 420.43 26.65 420.68 28.25C420.98 26.45 422.18 22.05 422.43 21.15L424.83 13H432.98L424.23 38H417.08L414.68 30.05C413.43 25.95 412.78 23 412.63 21.95C412.43 23 411.98 24.95 410.38 30.2L407.98 38H400.48ZM446.482 38H438.782V19.4H434.032V13H438.782V5.25H446.482V13H451.232V19.4H446.482V38ZM462.393 38H454.693V0.3H462.443V15.6C463.993 13.45 466.843 12.2 470.093 12.2C476.043 12.2 479.493 16 479.493 22.55V38H471.793V24.4C471.793 21.25 470.043 19.2 467.393 19.2C464.343 19.2 462.393 21.2 462.393 24.3V38ZM497.148 11.75C497.148 5.05 502.798 0.3 510.748 0.3C518.698 0.3 523.698 4.7 523.698 11.7H515.648C515.648 9.1 513.698 7.5 510.648 7.5C507.348 7.5 505.248 9 505.248 11.45C505.248 13.7 506.398 14.8 508.998 15.35L514.548 16.5C521.148 17.85 524.298 21 524.298 26.85C524.298 34 518.698 38.65 510.198 38.65C501.948 38.65 496.598 34.2 496.598 27.25H504.648C504.648 29.95 506.648 31.45 510.248 31.45C513.898 31.45 516.198 30 516.198 27.65C516.198 25.6 515.248 24.55 512.798 24.05L507.148 22.9C500.548 21.55 497.148 17.8 497.148 11.75ZM538.816 38H531.116V19.4H526.366V13H531.116V5.25H538.816V13H543.566V19.4H538.816V38ZM545.433 25.45C545.433 17.55 551.233 12.25 559.233 12.25C567.183 12.25 572.983 17.55 572.983 25.45C572.983 33.35 567.183 38.6 559.233 38.6C551.233 38.6 545.433 33.35 545.433 25.45ZM553.183 25.4C553.183 29.2 555.633 31.7 559.233 31.7C562.783 31.7 565.233 29.2 565.233 25.4C565.233 21.65 562.783 19.15 559.233 19.15C555.633 19.15 553.183 21.65 553.183 25.4ZM594.647 13V20.25H592.197C587.797 20.25 585.147 22.2 585.147 27.15V38H577.447V13.05H584.697L585.097 16.75C586.147 14.3 588.347 12.65 591.697 12.65C592.597 12.65 593.597 12.75 594.647 13ZM597.273 50V43.55H601.523C604.123 43.55 605.223 42.75 606.223 40.05L606.673 38.85L596.623 13H604.873L610.323 29.05L616.373 13H624.373L611.673 43.45C609.573 48.55 606.773 50.7 602.373 50.7C600.523 50.7 598.773 50.45 597.273 50ZM641.727 38V1H657.127C664.577 1 669.077 4.9 669.077 11.25C669.077 15.2 667.277 18.1 663.927 19.55C667.577 20.75 669.527 23.6 669.527 27.8C669.527 34.35 665.127 38 657.127 38H641.727ZM656.277 8.1H649.827V16.15H656.277C659.177 16.15 660.777 14.7 660.777 12.05C660.777 9.45 659.227 8.1 656.277 8.1ZM656.677 22.95H649.827V30.9H656.677C659.677 30.9 661.227 29.55 661.227 26.8C661.227 24.3 659.627 22.95 656.677 22.95ZM685.629 38.65C678.079 38.65 672.679 33.15 672.679 25.45C672.679 17.65 677.929 12.2 685.479 12.2C693.329 12.2 698.229 17.35 698.229 25.5V27.45L680.079 27.55C680.529 30.85 682.379 32.4 685.779 32.4C688.679 32.4 690.729 31.35 691.279 29.55H698.329C697.429 35.1 692.479 38.65 685.629 38.65ZM685.529 18.45C682.479 18.45 680.779 19.8 680.179 22.8H690.579C690.579 20.15 688.629 18.45 685.529 18.45ZM701.539 25.05C701.539 17.45 706.489 12.15 713.539 12.15C716.939 12.15 719.639 13.45 720.989 15.5L721.389 13H728.639V36.4C728.639 45.35 723.489 50.75 714.939 50.75C707.289 50.75 702.139 46.4 701.439 39.3H709.239C709.389 42.1 711.489 43.75 714.889 43.75C718.589 43.75 720.939 41.55 720.939 38V34.75C719.439 36.55 716.639 37.7 713.389 37.7C706.389 37.7 701.539 32.55 701.539 25.05ZM709.289 24.85C709.289 28.45 711.689 31 715.089 31C718.589 31 720.939 28.55 720.939 24.85C720.939 21.2 718.589 18.85 715.039 18.85C711.639 18.85 709.289 21.3 709.289 24.85ZM738.229 9.1C735.779 9.1 733.829 7.15 733.829 4.7C733.829 2.25 735.779 0.349999 738.229 0.349999C740.629 0.349999 742.579 2.25 742.579 4.7C742.579 7.15 740.629 9.1 738.229 9.1ZM734.429 38V13H742.129V38H734.429ZM755.606 38H747.906V13H755.156L755.656 15.6C757.206 13.45 760.056 12.2 763.306 12.2C769.256 12.2 772.706 16 772.706 22.55V38H765.006V24.4C765.006 21.25 763.256 19.2 760.606 19.2C757.556 19.2 755.606 21.2 755.606 24.3V38ZM776.135 30.1H783.435C783.535 31.85 784.835 32.9 787.185 32.9C789.585 32.9 790.685 32.05 790.685 30.75C790.685 30 790.285 29.2 788.435 28.8L783.835 27.8C779.235 26.8 776.985 24.8 776.985 20.4C776.985 15.2 781.435 12.2 787.435 12.2C793.235 12.2 797.285 15.6 797.285 20.65H789.985C789.985 18.95 788.935 17.8 787.085 17.8C785.335 17.8 784.235 18.7 784.235 20.05C784.235 21.2 785.185 21.85 786.935 22.25L791.585 23.25C795.685 24.15 797.935 26.05 797.935 30.05C797.935 35.4 793.385 38.65 786.885 38.65C780.285 38.65 776.135 35.15 776.135 30.1ZM179.317 101L168.217 64H176.667L181.517 80.05C182.167 82.25 182.767 84.45 183.367 88.1C183.967 84.45 184.567 82.35 185.217 80.05L189.767 64H198.817L203.167 80.05C203.767 82.3 204.367 84.55 205.017 88.1C205.767 84.35 206.317 82.3 206.967 80.15L211.917 64H220.167L208.867 101H200.967L194.217 76.7L187.267 101H179.317ZM227.634 72.1C225.184 72.1 223.234 70.15 223.234 67.7C223.234 65.25 225.184 63.35 227.634 63.35C230.034 63.35 231.984 65.25 231.984 67.7C231.984 70.15 230.034 72.1 227.634 72.1ZM223.834 101V76H231.534V101H223.834ZM247.41 101H239.71V82.4H234.96V76H239.71V68.25H247.41V76H252.16V82.4H247.41V101ZM263.321 101H255.621V63.3H263.371V78.6C264.921 76.45 267.771 75.2 271.021 75.2C276.971 75.2 280.421 79 280.421 85.55V101H272.721V87.4C272.721 84.25 270.971 82.2 268.321 82.2C265.271 82.2 263.321 84.2 263.321 87.3V101Z" fill="#1C1134"/>
<path d="M297.275 90.4V87.8H305.075V90.4C305.075 92.35 306.175 94.15 309.275 94.15C312.275 94.15 313.425 92.6 313.425 90.1V64H321.525V90.6C321.525 96.95 316.825 101.65 309.375 101.65C301.225 101.65 297.275 96.8 297.275 90.4ZM344.633 76H352.333V101H345.083L344.583 98.2C343.033 100.25 339.933 101.65 336.933 101.65C331.233 101.65 327.733 97.85 327.733 91.7V76H335.433V88.9C335.433 93 336.833 94.8 339.983 94.8C343.283 94.8 344.633 93.1 344.633 89V76ZM355.823 93.1H363.123C363.223 94.85 364.523 95.9 366.873 95.9C369.273 95.9 370.373 95.05 370.373 93.75C370.373 93 369.973 92.2 368.123 91.8L363.523 90.8C358.923 89.8 356.673 87.8 356.673 83.4C356.673 78.2 361.123 75.2 367.123 75.2C372.923 75.2 376.973 78.6 376.973 83.65H369.673C369.673 81.95 368.623 80.8 366.773 80.8C365.023 80.8 363.923 81.7 363.923 83.05C363.923 84.2 364.873 84.85 366.623 85.25L371.273 86.25C375.373 87.15 377.623 89.05 377.623 93.05C377.623 98.4 373.073 101.65 366.573 101.65C359.973 101.65 355.823 98.15 355.823 93.1ZM391.746 101H384.046V82.4H379.296V76H384.046V68.25H391.746V76H396.496V82.4H391.746V101ZM448.339 82.45C448.339 93.75 440.889 101.6 430.139 101.6C419.439 101.6 412.089 93.8 412.089 82.5C412.089 71.2 419.489 63.35 430.189 63.35C440.939 63.35 448.339 71.15 448.339 82.45ZM439.789 82.45C439.789 75.4 436.189 71.15 430.239 71.15C424.239 71.15 420.639 75.4 420.639 82.45C420.639 89.55 424.239 93.8 430.239 93.8C436.189 93.8 439.789 89.45 439.789 82.45ZM460.733 101H453.033V76H460.283L460.783 78.6C462.333 76.45 465.183 75.2 468.433 75.2C474.383 75.2 477.833 79 477.833 85.55V101H470.133V87.4C470.133 84.25 468.383 82.2 465.733 82.2C462.683 82.2 460.733 84.2 460.733 87.3V101ZM494.955 101.65C487.405 101.65 482.005 96.15 482.005 88.45C482.005 80.65 487.255 75.2 494.805 75.2C502.655 75.2 507.555 80.35 507.555 88.5V90.45L489.405 90.55C489.855 93.85 491.705 95.4 495.105 95.4C498.005 95.4 500.055 94.35 500.605 92.55H507.655C506.755 98.1 501.805 101.65 494.955 101.65ZM494.855 81.45C491.805 81.45 490.105 82.8 489.505 85.8H499.905C499.905 83.15 497.955 81.45 494.855 81.45ZM542.297 101.6C531.197 101.6 524.247 94.25 524.247 82.55C524.247 71 531.597 63.4 542.647 63.4C551.897 63.4 558.547 68.7 559.697 77H551.147C550.047 73.3 546.897 71.2 542.447 71.2C536.447 71.2 532.797 75.45 532.797 82.5C532.797 89.45 536.497 93.8 542.447 93.8C546.997 93.8 550.347 91.55 551.347 87.9H559.747C558.447 96.15 551.547 101.6 542.297 101.6ZM571.67 101H563.97V63.3H571.67V101ZM581.247 72.1C578.797 72.1 576.847 70.15 576.847 67.7C576.847 65.25 578.797 63.35 581.247 63.35C583.647 63.35 585.597 65.25 585.597 67.7C585.597 70.15 583.647 72.1 581.247 72.1ZM577.447 101V76H585.147V101H577.447ZM589.573 88.4C589.573 80.7 594.873 75.2 602.373 75.2C609.773 75.2 614.673 79.25 615.173 85.8H607.423C606.873 83.3 605.323 82.1 602.673 82.1C599.423 82.1 597.323 84.55 597.323 88.4C597.323 92.4 599.273 94.75 602.573 94.75C605.273 94.75 606.923 93.5 607.423 91.05H615.173C614.673 97.35 609.573 101.65 602.573 101.65C594.673 101.65 589.573 96.4 589.573 88.4ZM627.09 101H619.39V63.3H627.09V85L635.19 76H644.84L635.44 85.9L644.54 101H635.64L630.04 91.65L627.09 94.75V101Z" fill="#1CC382"/>
</svg>
