<svg width="818" height="111" viewBox="0 0 818 111" fill="none" xmlns="http://www.w3.org/2000/svg">
<path d="M1.23457 11.75C1.23457 5.05 6.88457 0.3 14.8346 0.3C22.7846 0.3 27.7846 4.7 27.7846 11.7H19.7346C19.7346 9.1 17.7846 7.5 14.7346 7.5C11.4346 7.5 9.33457 9 9.33457 11.45C9.33457 13.7 10.4846 14.8 13.0846 15.35L18.6346 16.5C25.2346 17.85 28.3846 21 28.3846 26.85C28.3846 34 22.7846 38.65 14.2846 38.65C6.03457 38.65 0.68457 34.2 0.68457 27.25H8.73457C8.73457 29.95 10.7346 31.45 14.3346 31.45C17.9846 31.45 20.2846 30 20.2846 27.65C20.2846 25.6 19.3346 24.55 16.8846 24.05L11.2346 22.9C4.63457 21.55 1.23457 17.8 1.23457 11.75ZM42.9033 38H35.2033V19.4H30.4533V13H35.2033V5.25H42.9033V13H47.6533V19.4H42.9033V38ZM68.3139 13V20.25H65.8639C61.4639 20.25 58.8139 22.2 58.8139 27.15V38H51.1139V13.05H58.3639L58.7639 16.75C59.8139 14.3 62.0139 12.65 65.3639 12.65C66.2639 12.65 67.2639 12.75 68.3139 13ZM83.0752 38.65C75.5252 38.65 70.1252 33.15 70.1252 25.45C70.1252 17.65 75.3752 12.2 82.9252 12.2C90.7752 12.2 95.6752 17.35 95.6752 25.5V27.45L77.5252 27.55C77.9752 30.85 79.8252 32.4 83.2252 32.4C86.1252 32.4 88.1752 31.35 88.7252 29.55H95.7752C94.8752 35.1 89.9252 38.65 83.0752 38.65ZM82.9752 18.45C79.9252 18.45 78.2252 19.8 77.6252 22.8H88.0252C88.0252 20.15 86.0752 18.45 82.9752 18.45ZM107.541 38.65C102.241 38.65 98.9408 35.55 98.9408 30.65C98.9408 26.05 102.191 23.2 108.191 22.75L115.191 22.2V21.8C115.191 19.35 113.691 18.05 110.941 18.05C107.691 18.05 105.941 19.3 105.941 21.55H99.5408C99.5408 15.9 104.191 12.2 111.341 12.2C118.591 12.2 122.691 16.25 122.691 23.4V38H115.891L115.391 34.7C114.591 37 111.291 38.65 107.541 38.65ZM110.241 32.95C113.191 32.95 115.241 31.5 115.241 28.65V27.3L111.341 27.65C107.991 27.95 106.791 28.7 106.791 30.3C106.791 32.1 107.891 32.95 110.241 32.95ZM135.913 38H128.213V13H135.413L135.913 15.6C137.163 13.85 139.613 12.2 143.213 12.2C146.963 12.2 149.363 13.95 150.813 16.6C152.113 13.95 155.063 12.2 158.663 12.2C165.113 12.2 168.313 15.95 168.313 21.65V38H160.613V23.8C160.613 20.65 158.963 19.15 156.513 19.15C154.313 19.15 152.113 20.35 152.113 24.6V38H144.413V23.8C144.413 20.7 142.813 19.2 140.363 19.2C138.163 19.2 135.913 20.4 135.913 24.6V38ZM181.519 38H173.819V0.3H181.519V38ZM191.096 9.1C188.646 9.1 186.696 7.15 186.696 4.7C186.696 2.25 188.646 0.349999 191.096 0.349999C193.496 0.349999 195.446 2.25 195.446 4.7C195.446 7.15 193.496 9.1 191.096 9.1ZM187.296 38V13H194.996V38H187.296ZM208.472 38H200.772V13H208.022L208.522 15.6C210.072 13.45 212.922 12.2 216.172 12.2C222.122 12.2 225.572 16 225.572 22.55V38H217.872V24.4C217.872 21.25 216.122 19.2 213.472 19.2C210.422 19.2 208.472 21.2 208.472 24.3V38ZM242.694 38.65C235.144 38.65 229.744 33.15 229.744 25.45C229.744 17.65 234.994 12.2 242.544 12.2C250.394 12.2 255.294 17.35 255.294 25.5V27.45L237.144 27.55C237.594 30.85 239.444 32.4 242.844 32.4C245.744 32.4 247.794 31.35 248.344 29.55H255.394C254.494 35.1 249.544 38.65 242.694 38.65ZM242.594 18.45C239.544 18.45 237.844 19.8 237.244 22.8H247.644C247.644 20.15 245.694 18.45 242.594 18.45ZM283.187 23.95L270.687 1H279.737L285.937 13C286.537 14.15 286.937 15.05 287.337 16C287.787 15.1 288.187 14.15 288.787 12.95L294.987 1H303.787L291.287 23.95V38H283.187V23.95ZM300.301 25.45C300.301 17.55 306.101 12.25 314.101 12.25C322.051 12.25 327.851 17.55 327.851 25.45C327.851 33.35 322.051 38.6 314.101 38.6C306.101 38.6 300.301 33.35 300.301 25.45ZM308.051 25.4C308.051 29.2 310.501 31.7 314.101 31.7C317.651 31.7 320.101 29.2 320.101 25.4C320.101 21.65 317.651 19.15 314.101 19.15C310.501 19.15 308.051 21.65 308.051 25.4ZM348.329 13H356.029V38H348.779L348.279 35.2C346.729 37.25 343.629 38.65 340.629 38.65C334.929 38.65 331.429 34.85 331.429 28.7V13H339.129V25.9C339.129 30 340.529 31.8 343.679 31.8C346.979 31.8 348.329 30.1 348.329 26V13ZM379.007 13V20.25H376.557C372.157 20.25 369.507 22.2 369.507 27.15V38H361.807V13.05H369.057L369.457 16.75C370.507 14.3 372.707 12.65 376.057 12.65C376.957 12.65 377.957 12.75 379.007 13ZM394.233 8.5V1H423.333V8.5H412.833V38H404.733V8.5H394.233ZM430.295 38.65C424.995 38.65 421.695 35.55 421.695 30.65C421.695 26.05 424.945 23.2 430.945 22.75L437.945 22.2V21.8C437.945 19.35 436.445 18.05 433.695 18.05C430.445 18.05 428.695 19.3 428.695 21.55H422.295C422.295 15.9 426.945 12.2 434.095 12.2C441.345 12.2 445.445 16.25 445.445 23.4V38H438.645L438.145 34.7C437.345 37 434.045 38.65 430.295 38.65ZM432.995 32.95C435.945 32.95 437.995 31.5 437.995 28.65V27.3L434.095 27.65C430.745 27.95 429.545 28.7 429.545 30.3C429.545 32.1 430.645 32.95 432.995 32.95ZM458.667 38H450.967V0.3H458.667V38ZM476.044 38.65C468.494 38.65 463.094 33.15 463.094 25.45C463.094 17.65 468.344 12.2 475.894 12.2C483.744 12.2 488.644 17.35 488.644 25.5V27.45L470.494 27.55C470.944 30.85 472.794 32.4 476.194 32.4C479.094 32.4 481.144 31.35 481.694 29.55H488.744C487.844 35.1 482.894 38.65 476.044 38.65ZM475.944 18.45C472.894 18.45 471.194 19.8 470.594 22.8H480.994C480.994 20.15 479.044 18.45 475.944 18.45ZM500.904 38H493.204V13H500.454L500.954 15.6C502.504 13.45 505.354 12.2 508.604 12.2C514.554 12.2 518.004 16 518.004 22.55V38H510.304V24.4C510.304 21.25 508.554 19.2 505.904 19.2C502.854 19.2 500.904 21.2 500.904 24.3V38ZM533.626 38H525.926V19.4H521.176V13H525.926V5.25H533.626V13H538.376V19.4H533.626V38ZM561.069 38H552.619L565.819 1H573.719L586.869 38H578.269L575.669 30.2H563.719L561.069 38ZM568.719 15.5L566.069 23.4H573.369L570.719 15.5C570.319 14.25 569.869 12.8 569.719 11.9C569.569 12.75 569.169 14.15 568.719 15.5ZM587.606 25.4C587.606 17.7 592.906 12.2 600.406 12.2C607.806 12.2 612.706 16.25 613.206 22.8H605.456C604.906 20.3 603.356 19.1 600.706 19.1C597.456 19.1 595.356 21.55 595.356 25.4C595.356 29.4 597.306 31.75 600.606 31.75C603.306 31.75 604.956 30.5 605.456 28.05H613.206C612.706 34.35 607.606 38.65 600.606 38.65C592.706 38.65 587.606 33.4 587.606 25.4ZM616.072 25.1C616.072 17.05 620.922 12.2 627.872 12.2C631.422 12.2 634.572 13.75 635.972 16.05L636.372 13H643.622V50H635.922V35.5C634.472 37.4 631.272 38.7 627.822 38.7C620.372 38.7 616.072 33 616.072 25.1ZM623.822 25.5C623.822 29.2 626.122 31.75 629.772 31.75C633.372 31.75 635.872 29.25 635.872 25.5C635.872 21.75 633.372 19.25 629.772 19.25C626.122 19.25 623.822 21.8 623.822 25.5ZM666.005 13H673.705V38H666.455L665.955 35.2C664.405 37.25 661.305 38.65 658.305 38.65C652.605 38.65 649.105 34.85 649.105 28.7V13H656.805V25.9C656.805 30 658.205 31.8 661.355 31.8C664.655 31.8 666.005 30.1 666.005 26V13ZM683.283 9.1C680.833 9.1 678.883 7.15 678.883 4.7C678.883 2.25 680.833 0.349999 683.283 0.349999C685.683 0.349999 687.633 2.25 687.633 4.7C687.633 7.15 685.683 9.1 683.283 9.1ZM679.483 38V13H687.183V38H679.483ZM691.16 30.1H698.46C698.56 31.85 699.86 32.9 702.21 32.9C704.61 32.9 705.71 32.05 705.71 30.75C705.71 30 705.31 29.2 703.46 28.8L698.86 27.8C694.26 26.8 692.01 24.8 692.01 20.4C692.01 15.2 696.46 12.2 702.46 12.2C708.26 12.2 712.31 15.6 712.31 20.65H705.01C705.01 18.95 703.96 17.8 702.11 17.8C700.36 17.8 699.26 18.7 699.26 20.05C699.26 21.2 700.21 21.85 701.96 22.25L706.61 23.25C710.71 24.15 712.96 26.05 712.96 30.05C712.96 35.4 708.41 38.65 701.91 38.65C695.31 38.65 691.16 35.15 691.16 30.1ZM720.783 9.1C718.333 9.1 716.383 7.15 716.383 4.7C716.383 2.25 718.333 0.349999 720.783 0.349999C723.183 0.349999 725.133 2.25 725.133 4.7C725.133 7.15 723.183 9.1 720.783 9.1ZM716.983 38V13H724.683V38H716.983ZM740.56 38H732.86V19.4H728.11V13H732.86V5.25H740.56V13H745.31V19.4H740.56V38ZM752.57 9.1C750.12 9.1 748.17 7.15 748.17 4.7C748.17 2.25 750.12 0.349999 752.57 0.349999C754.97 0.349999 756.92 2.25 756.92 4.7C756.92 7.15 754.97 9.1 752.57 9.1ZM748.77 38V13H756.47V38H748.77ZM760.897 25.45C760.897 17.55 766.697 12.25 774.697 12.25C782.647 12.25 788.447 17.55 788.447 25.45C788.447 33.35 782.647 38.6 774.697 38.6C766.697 38.6 760.897 33.35 760.897 25.45ZM768.647 25.4C768.647 29.2 771.097 31.7 774.697 31.7C778.247 31.7 780.697 29.2 780.697 25.4C780.697 21.65 778.247 19.15 774.697 19.15C771.097 19.15 768.647 21.65 768.647 25.4ZM800.611 38H792.911V13H800.161L800.661 15.6C802.211 13.45 805.061 12.2 808.311 12.2C814.261 12.2 817.711 16 817.711 22.55V38H810.011V24.4C810.011 21.25 808.261 19.2 805.611 19.2C802.561 19.2 800.611 21.2 800.611 24.3V38ZM113.377 85.7H106.477V98H98.3773V61H113.377C120.927 61 125.977 65.95 125.977 73.35C125.977 80.75 120.927 85.7 113.377 85.7ZM111.577 68.2H106.477V78.5H111.577C115.477 78.5 117.427 76.8 117.427 73.35C117.427 69.9 115.477 68.2 111.577 68.2ZM147.342 73V80.25H144.892C140.492 80.25 137.842 82.2 137.842 87.15V98H130.142V73.05H137.392L137.792 76.75C138.842 74.3 141.042 72.65 144.392 72.65C145.292 72.65 146.292 72.75 147.342 73ZM149.154 85.45C149.154 77.55 154.954 72.25 162.954 72.25C170.904 72.25 176.704 77.55 176.704 85.45C176.704 93.35 170.904 98.6 162.954 98.6C154.954 98.6 149.154 93.35 149.154 85.45ZM156.904 85.4C156.904 89.2 159.354 91.7 162.954 91.7C166.504 91.7 168.954 89.2 168.954 85.4C168.954 81.65 166.504 79.15 162.954 79.15C159.354 79.15 156.904 81.65 156.904 85.4ZM179.818 85.4C179.818 77.7 185.118 72.2 192.618 72.2C200.018 72.2 204.918 76.25 205.418 82.8H197.668C197.118 80.3 195.568 79.1 192.918 79.1C189.668 79.1 187.568 81.55 187.568 85.4C187.568 89.4 189.518 91.75 192.818 91.75C195.518 91.75 197.168 90.5 197.668 88.05H205.418C204.918 94.35 199.818 98.65 192.818 98.65C184.918 98.65 179.818 93.4 179.818 85.4ZM221.234 98.65C213.684 98.65 208.284 93.15 208.284 85.45C208.284 77.65 213.534 72.2 221.084 72.2C228.934 72.2 233.834 77.35 233.834 85.5V87.45L215.684 87.55C216.134 90.85 217.984 92.4 221.384 92.4C224.284 92.4 226.334 91.35 226.884 89.55H233.934C233.034 95.1 228.084 98.65 221.234 98.65ZM221.134 78.45C218.084 78.45 216.384 79.8 215.784 82.8H226.184C226.184 80.15 224.234 78.45 221.134 78.45ZM236.594 90.1H243.894C243.994 91.85 245.294 92.9 247.644 92.9C250.044 92.9 251.144 92.05 251.144 90.75C251.144 90 250.744 89.2 248.894 88.8L244.294 87.8C239.694 86.8 237.444 84.8 237.444 80.4C237.444 75.2 241.894 72.2 247.894 72.2C253.694 72.2 257.744 75.6 257.744 80.65H250.444C250.444 78.95 249.394 77.8 247.544 77.8C245.794 77.8 244.694 78.7 244.694 80.05C244.694 81.2 245.644 81.85 247.394 82.25L252.044 83.25C256.144 84.15 258.394 86.05 258.394 90.05C258.394 95.4 253.844 98.65 247.344 98.65C240.744 98.65 236.594 95.15 236.594 90.1ZM260.618 90.1H267.918C268.018 91.85 269.318 92.9 271.668 92.9C274.068 92.9 275.168 92.05 275.168 90.75C275.168 90 274.768 89.2 272.918 88.8L268.318 87.8C263.718 86.8 261.468 84.8 261.468 80.4C261.468 75.2 265.918 72.2 271.918 72.2C277.718 72.2 281.768 75.6 281.768 80.65H274.468C274.468 78.95 273.418 77.8 271.568 77.8C269.818 77.8 268.718 78.7 268.718 80.05C268.718 81.2 269.668 81.85 271.418 82.25L276.068 83.25C280.168 84.15 282.418 86.05 282.418 90.05C282.418 95.4 277.868 98.65 271.368 98.65C264.768 98.65 260.618 95.15 260.618 90.1ZM305.323 98L297.273 73H305.373L307.673 81.15C308.273 83.3 308.823 85.75 309.223 88.25C309.673 85.6 309.923 84.65 311.023 81.15L313.573 73H321.473L323.823 81.15C324.073 82 325.273 86.65 325.523 88.25C325.823 86.45 327.023 82.05 327.273 81.15L329.673 73H337.823L329.073 98H321.923L319.523 90.05C318.273 85.95 317.623 83 317.473 81.95C317.273 83 316.823 84.95 315.223 90.2L312.823 98H305.323ZM345.026 69.1C342.576 69.1 340.626 67.15 340.626 64.7C340.626 62.25 342.576 60.35 345.026 60.35C347.426 60.35 349.376 62.25 349.376 64.7C349.376 67.15 347.426 69.1 345.026 69.1ZM341.226 98V73H348.926V98H341.226ZM364.803 98H357.103V79.4H352.353V73H357.103V65.25H364.803V73H369.553V79.4H364.803V98ZM380.713 98H373.013V60.3H380.763V75.6C382.313 73.45 385.163 72.2 388.413 72.2C394.363 72.2 397.813 76 397.813 82.55V98H390.113V84.4C390.113 81.25 388.363 79.2 385.713 79.2C382.663 79.2 380.713 81.2 380.713 84.3V98ZM425.618 61V98H417.518V61H425.618ZM440.088 98H432.388V73H439.638L440.138 75.6C441.688 73.45 444.538 72.2 447.788 72.2C453.738 72.2 457.188 76 457.188 82.55V98H449.488V84.4C449.488 81.25 447.738 79.2 445.088 79.2C442.038 79.2 440.088 81.2 440.088 84.3V98ZM469.322 98L459.572 73H467.872L470.922 81.75C472.172 85.4 473.172 88.55 473.372 89.7C473.672 88.25 474.772 85 476.022 81.75L479.372 73H487.372L476.922 98H469.322ZM500.873 98.65C493.323 98.65 487.923 93.15 487.923 85.45C487.923 77.65 493.173 72.2 500.723 72.2C508.573 72.2 513.473 77.35 513.473 85.5V87.45L495.323 87.55C495.773 90.85 497.623 92.4 501.023 92.4C503.923 92.4 505.973 91.35 506.523 89.55H513.573C512.673 95.1 507.723 98.65 500.873 98.65ZM500.773 78.45C497.723 78.45 496.023 79.8 495.423 82.8H505.823C505.823 80.15 503.873 78.45 500.773 78.45ZM516.233 90.1H523.533C523.633 91.85 524.933 92.9 527.283 92.9C529.683 92.9 530.783 92.05 530.783 90.75C530.783 90 530.383 89.2 528.533 88.8L523.933 87.8C519.333 86.8 517.083 84.8 517.083 80.4C517.083 75.2 521.533 72.2 527.533 72.2C533.333 72.2 537.383 75.6 537.383 80.65H530.083C530.083 78.95 529.033 77.8 527.183 77.8C525.433 77.8 524.333 78.7 524.333 80.05C524.333 81.2 525.283 81.85 527.033 82.25L531.683 83.25C535.783 84.15 538.033 86.05 538.033 90.05C538.033 95.4 533.483 98.65 526.983 98.65C520.383 98.65 516.233 95.15 516.233 90.1ZM552.156 98H544.456V79.4H539.706V73H544.456V65.25H552.156V73H556.906V79.4H552.156V98ZM558.567 90.1H565.867C565.967 91.85 567.267 92.9 569.617 92.9C572.017 92.9 573.117 92.05 573.117 90.75C573.117 90 572.717 89.2 570.867 88.8L566.267 87.8C561.667 86.8 559.417 84.8 559.417 80.4C559.417 75.2 563.867 72.2 569.867 72.2C575.667 72.2 579.717 75.6 579.717 80.65H572.417C572.417 78.95 571.367 77.8 569.517 77.8C567.767 77.8 566.667 78.7 566.667 80.05C566.667 81.2 567.617 81.85 569.367 82.25L574.017 83.25C578.117 84.15 580.367 86.05 580.367 90.05C580.367 95.4 575.817 98.65 569.317 98.65C562.717 98.65 558.567 95.15 558.567 90.1ZM594.49 98H586.79V79.4H582.04V73H586.79V65.25H594.49V73H599.24V79.4H594.49V98ZM610.251 98.65C604.951 98.65 601.651 95.55 601.651 90.65C601.651 86.05 604.901 83.2 610.901 82.75L617.901 82.2V81.8C617.901 79.35 616.401 78.05 613.651 78.05C610.401 78.05 608.651 79.3 608.651 81.55H602.251C602.251 75.9 606.901 72.2 614.051 72.2C621.301 72.2 625.401 76.25 625.401 83.4V98H618.601L618.101 94.7C617.301 97 614.001 98.65 610.251 98.65ZM612.951 92.95C615.901 92.95 617.951 91.5 617.951 88.65V87.3L614.051 87.65C610.701 87.95 609.501 88.7 609.501 90.3C609.501 92.1 610.601 92.95 612.951 92.95ZM628.573 73H632.023V71C632.023 63.55 635.873 60.3 642.223 60.3C643.273 60.3 644.473 60.4 645.673 60.6V67.2H643.523C640.373 67.2 639.723 68.85 639.723 71V73H648.923V71C648.923 63.55 652.773 60.3 658.623 60.3C659.673 60.3 660.873 60.4 662.073 60.6V67.2H659.923C657.273 67.2 656.623 68.85 656.623 71V73H673.573V98H665.823V79.4H656.623V98H648.923V79.4H639.723V98H632.023V79.4H628.573V73ZM669.723 69.1C667.273 69.1 665.323 67.15 665.323 64.7C665.323 62.25 667.273 60.35 669.723 60.35C672.123 60.35 674.073 62.25 674.073 64.7C674.073 67.15 672.123 69.1 669.723 69.1ZM687.11 98H679.41V73H686.66L687.16 75.6C688.71 73.45 691.56 72.2 694.81 72.2C700.76 72.2 704.21 76 704.21 82.55V98H696.51V84.4C696.51 81.25 694.76 79.2 692.11 79.2C689.06 79.2 687.11 81.2 687.11 84.3V98ZM708.482 85.05C708.482 77.45 713.432 72.15 720.482 72.15C723.882 72.15 726.582 73.45 727.932 75.5L728.332 73H735.582V96.4C735.582 105.35 730.432 110.75 721.882 110.75C714.232 110.75 709.082 106.4 708.382 99.3H716.182C716.332 102.1 718.432 103.75 721.832 103.75C725.532 103.75 727.882 101.55 727.882 98V94.75C726.382 96.55 723.582 97.7 720.332 97.7C713.332 97.7 708.482 92.55 708.482 85.05ZM716.232 84.85C716.232 88.45 718.632 91 722.032 91C725.532 91 727.882 88.55 727.882 84.85C727.882 81.2 725.532 78.85 721.982 78.85C718.582 78.85 716.232 81.3 716.232 84.85Z" fill="#1C1134"/>
</svg>
