<svg width="589" height="128" viewBox="0 0 589 128" fill="none" xmlns="http://www.w3.org/2000/svg">
<path d="M12.42 45H4.86V1.14H12.48L33.06 32.22V1.14H40.62V45H33.06L12.42 13.92V45ZM60.7088 45.78C51.8888 45.78 45.7088 39.36 45.7088 30.18C45.7088 20.88 51.7688 14.46 60.4688 14.46C69.3488 14.46 74.9888 20.4 74.9888 29.64V31.86L52.6688 31.92C53.2088 37.14 55.9688 39.78 60.8288 39.78C64.8488 39.78 67.4888 38.22 68.3288 35.4H75.1088C73.8488 41.88 68.4488 45.78 60.7088 45.78ZM60.5288 20.46C56.2088 20.46 53.5688 22.8 52.8488 27.24H67.7288C67.7288 23.16 64.9088 20.46 60.5288 20.46ZM86.1581 45L74.3981 15.36H82.1981L87.3581 28.98C88.6181 32.52 89.6381 35.58 89.9981 37.2C90.4181 35.34 91.4981 32.22 92.7581 28.98L98.1581 15.36H105.718L93.3581 45H86.1581ZM119.921 45.78C111.101 45.78 104.921 39.36 104.921 30.18C104.921 20.88 110.981 14.46 119.681 14.46C128.561 14.46 134.201 20.4 134.201 29.64V31.86L111.881 31.92C112.421 37.14 115.181 39.78 120.041 39.78C124.061 39.78 126.701 38.22 127.541 35.4H134.321C133.061 41.88 127.661 45.78 119.921 45.78ZM119.741 20.46C115.421 20.46 112.781 22.8 112.061 27.24H126.941C126.941 23.16 124.121 20.46 119.741 20.46ZM156.86 15.24V22.02H154.16C148.88 22.02 145.58 24.84 145.58 30.6V45H138.26V15.42H145.16L145.58 19.74C146.84 16.8 149.66 14.82 153.62 14.82C154.64 14.82 155.66 14.94 156.86 15.24ZM182.906 45H175.466V1.14H182.906L197.066 36.06L211.226 1.14H218.786V45H211.346V31.5C211.346 22.68 211.346 20.1 211.766 16.98L200.606 45H193.526L182.426 17.04C182.846 19.68 182.906 23.82 182.906 29.28V45ZM229.274 9.42C226.754 9.42 224.774 7.44 224.774 4.98C224.774 2.52 226.754 0.599999 229.274 0.599999C231.674 0.599999 233.654 2.52 233.654 4.98C233.654 7.44 231.674 9.42 229.274 9.42ZM225.614 45V15.36H232.934V45H225.614ZM236.416 36H243.376C243.436 38.58 245.356 40.2 248.716 40.2C252.136 40.2 253.996 38.82 253.996 36.66C253.996 35.16 253.216 34.08 250.576 33.48L245.236 32.22C239.896 31.02 237.316 28.5 237.316 23.76C237.316 17.94 242.236 14.46 249.076 14.46C255.736 14.46 260.236 18.3 260.296 24.06H253.336C253.276 21.54 251.596 19.92 248.776 19.92C245.896 19.92 244.216 21.24 244.216 23.46C244.216 25.14 245.536 26.22 248.056 26.82L253.396 28.08C258.376 29.22 260.896 31.5 260.896 36.06C260.896 42.06 255.796 45.78 248.476 45.78C241.096 45.78 236.416 41.82 236.416 36ZM262.39 36H269.35C269.41 38.58 271.33 40.2 274.69 40.2C278.11 40.2 279.97 38.82 279.97 36.66C279.97 35.16 279.19 34.08 276.55 33.48L271.21 32.22C265.87 31.02 263.29 28.5 263.29 23.76C263.29 17.94 268.21 14.46 275.05 14.46C281.71 14.46 286.21 18.3 286.27 24.06H279.31C279.25 21.54 277.57 19.92 274.75 19.92C271.87 19.92 270.19 21.24 270.19 23.46C270.19 25.14 271.51 26.22 274.03 26.82L279.37 28.08C284.35 29.22 286.87 31.5 286.87 36.06C286.87 42.06 281.77 45.78 274.45 45.78C267.07 45.78 262.39 41.82 262.39 36ZM346.115 23.04C346.115 36.36 337.355 45.72 324.755 45.72C312.215 45.72 303.575 36.42 303.575 23.04C303.575 9.72 312.275 0.359999 324.815 0.359999C337.355 0.359999 346.115 9.66 346.115 23.04ZM338.015 23.04C338.015 13.68 332.855 7.74 324.815 7.74C316.775 7.74 311.615 13.68 311.615 23.04C311.615 32.4 316.775 38.34 324.815 38.34C332.855 38.34 338.015 32.28 338.015 23.04ZM370.483 15.36H377.803V45H371.023L370.483 41.04C368.683 43.86 364.843 45.78 360.883 45.78C354.043 45.78 350.023 41.16 350.023 33.9V15.36H357.343V31.32C357.343 36.96 359.563 39.24 363.643 39.24C368.263 39.24 370.483 36.54 370.483 30.9V15.36ZM393.644 45H386.324V21.48H380.624V15.36H386.324V6.12H393.644V15.36H399.404V21.48H393.644V45ZM414.786 30.12C414.786 20.88 421.446 14.52 430.626 14.52C439.806 14.52 446.466 20.88 446.466 30.12C446.466 39.36 439.806 45.72 430.626 45.72C421.446 45.72 414.786 39.36 414.786 30.12ZM422.106 30.12C422.106 35.52 425.586 39.18 430.626 39.18C435.666 39.18 439.146 35.52 439.146 30.12C439.146 24.72 435.666 21.06 430.626 21.06C425.586 21.06 422.106 24.72 422.106 30.12ZM457.788 45H450.468V15.36H457.248L457.848 19.2C459.708 16.2 463.308 14.46 467.328 14.46C474.768 14.46 478.608 19.08 478.608 26.76V45H471.288V28.5C471.288 23.52 468.828 21.12 465.048 21.12C460.548 21.12 457.788 24.24 457.788 29.04V45ZM15.42 95.72L0.6 69.14H9.18L17.82 85.1C18.48 86.3 18.9 87.26 19.38 88.34C19.92 87.26 20.16 86.54 20.94 85.1L29.52 69.14H37.86L23.1 95.72V113H15.42V95.72ZM32.4666 98.12C32.4666 88.88 39.1266 82.52 48.3066 82.52C57.4866 82.52 64.1466 88.88 64.1466 98.12C64.1466 107.36 57.4866 113.72 48.3066 113.72C39.1266 113.72 32.4666 107.36 32.4666 98.12ZM39.7866 98.12C39.7866 103.52 43.2666 107.18 48.3066 107.18C53.3466 107.18 56.8266 103.52 56.8266 98.12C56.8266 92.72 53.3466 89.06 48.3066 89.06C43.2666 89.06 39.7866 92.72 39.7866 98.12ZM87.5456 83.36H94.8656V113H88.0856L87.5456 109.04C85.7456 111.86 81.9056 113.78 77.9456 113.78C71.1056 113.78 67.0856 109.16 67.0856 101.9V83.36H74.4056V99.32C74.4056 104.96 76.6256 107.24 80.7056 107.24C85.3256 107.24 87.5456 104.54 87.5456 98.9V83.36ZM119.226 83.24V90.02H116.526C111.246 90.02 107.946 92.84 107.946 98.6V113H100.626V83.42H107.526L107.946 87.74C109.206 84.8 112.026 82.82 115.986 82.82C117.006 82.82 118.026 82.94 119.226 83.24ZM447.988 113H440.008L455.848 69.14H463.708L479.548 113H471.448L467.908 102.86H451.528L447.988 113ZM458.788 82.22L453.808 96.38H465.688L460.648 82.22C460.288 81.08 459.868 79.76 459.748 78.86C459.568 79.7 459.208 81.02 458.788 82.22ZM479.667 97.52C479.667 88.88 485.307 82.4 493.767 82.4C498.207 82.4 501.687 84.26 503.427 87.44L503.847 83.36H510.627V111.5C510.627 121.4 504.687 127.58 495.087 127.58C486.567 127.58 480.747 122.72 479.847 114.8H487.167C487.647 118.64 490.587 120.92 495.087 120.92C500.127 120.92 503.367 117.74 503.367 112.82V107.9C501.507 110.66 497.847 112.4 493.587 112.4C485.187 112.4 479.667 106.1 479.667 97.52ZM487.047 97.34C487.047 102.32 490.227 106.04 495.027 106.04C500.067 106.04 503.187 102.5 503.187 97.34C503.187 92.3 500.127 88.82 495.027 88.82C490.167 88.82 487.047 92.48 487.047 97.34ZM525.223 113.78C518.923 113.78 515.083 110.12 515.083 104.54C515.083 99.08 519.043 95.66 526.063 95.12L534.943 94.46V93.8C534.943 89.78 532.543 88.16 528.823 88.16C524.503 88.16 522.103 89.96 522.103 93.08H515.863C515.863 86.66 521.143 82.46 529.183 82.46C537.163 82.46 542.083 86.78 542.083 95V113H535.663L535.123 108.62C533.863 111.68 529.843 113.78 525.223 113.78ZM527.623 108.26C532.123 108.26 535.003 105.56 535.003 101V99.44L528.823 99.92C524.263 100.34 522.523 101.84 522.523 104.24C522.523 106.94 524.323 108.26 527.623 108.26ZM551.134 77.42C548.614 77.42 546.634 75.44 546.634 72.98C546.634 70.52 548.614 68.6 551.134 68.6C553.534 68.6 555.514 70.52 555.514 72.98C555.514 75.44 553.534 77.42 551.134 77.42ZM547.474 113V83.36H554.794V113H547.474ZM567.877 113H560.557V83.36H567.337L567.937 87.2C569.797 84.2 573.397 82.46 577.417 82.46C584.857 82.46 588.697 87.08 588.697 94.76V113H581.377V96.5C581.377 91.52 578.917 89.12 575.137 89.12C570.637 89.12 567.877 92.24 567.877 97.04V113Z" fill="black"/>
<path d="M153.613 113H137.833V69.14H153.193C166.153 69.14 175.093 78.08 175.093 91.16C175.093 104.06 166.333 113 153.613 113ZM152.473 76.22H145.513V105.92H152.893C161.653 105.92 166.993 100.28 166.993 91.16C166.993 81.86 161.533 76.22 152.473 76.22ZM197.967 83.24V90.02H195.267C189.987 90.02 186.687 92.84 186.687 98.6V113H179.367V83.42H186.267L186.687 87.74C187.947 84.8 190.767 82.82 194.727 82.82C195.747 82.82 196.767 82.94 197.967 83.24ZM213.385 113.78C204.565 113.78 198.385 107.36 198.385 98.18C198.385 88.88 204.445 82.46 213.145 82.46C222.025 82.46 227.665 88.4 227.665 97.64V99.86L205.345 99.92C205.885 105.14 208.645 107.78 213.505 107.78C217.525 107.78 220.165 106.22 221.005 103.4H227.785C226.525 109.88 221.125 113.78 213.385 113.78ZM213.205 88.46C208.885 88.46 206.245 90.8 205.525 95.24H220.405C220.405 91.16 217.585 88.46 213.205 88.46ZM240.251 113.78C233.951 113.78 230.111 110.12 230.111 104.54C230.111 99.08 234.071 95.66 241.091 95.12L249.971 94.46V93.8C249.971 89.78 247.571 88.16 243.851 88.16C239.531 88.16 237.131 89.96 237.131 93.08H230.891C230.891 86.66 236.171 82.46 244.211 82.46C252.191 82.46 257.111 86.78 257.111 95V113H250.691L250.151 108.62C248.891 111.68 244.871 113.78 240.251 113.78ZM242.651 108.26C247.151 108.26 250.031 105.56 250.031 101V99.44L243.851 99.92C239.291 100.34 237.551 101.84 237.551 104.24C237.551 106.94 239.351 108.26 242.651 108.26ZM269.822 113H262.502V83.36H269.222L269.822 86.84C271.322 84.38 274.322 82.46 278.582 82.46C283.082 82.46 286.202 84.68 287.762 88.1C289.262 84.68 292.742 82.46 297.242 82.46C304.442 82.46 308.402 86.78 308.402 93.62V113H301.142V95.54C301.142 91.28 298.862 89.06 295.382 89.06C291.842 89.06 289.142 91.34 289.142 96.2V113H281.822V95.48C281.822 91.34 279.602 89.12 276.122 89.12C272.642 89.12 269.822 91.4 269.822 96.2V113ZM325.58 100.64V98.06H332.96V100.64C332.96 104 334.82 106.64 339.14 106.64C343.46 106.64 345.26 104.18 345.26 100.34V69.14H352.94V100.76C352.94 108.5 347.54 113.78 339.2 113.78C330.2 113.78 325.58 108.2 325.58 100.64ZM357.725 98.12C357.725 88.88 364.385 82.52 373.565 82.52C382.745 82.52 389.405 88.88 389.405 98.12C389.405 107.36 382.745 113.72 373.565 113.72C364.385 113.72 357.725 107.36 357.725 98.12ZM365.045 98.12C365.045 103.52 368.525 107.18 373.565 107.18C378.605 107.18 382.085 103.52 382.085 98.12C382.085 92.72 378.605 89.06 373.565 89.06C368.525 89.06 365.045 92.72 365.045 98.12ZM400.187 113H393.407V68.36H400.727V87.68C402.647 84.38 406.607 82.4 411.107 82.4C419.567 82.4 424.727 89 424.727 98.36C424.727 107.48 419.147 113.78 410.627 113.78C406.187 113.78 402.407 111.8 400.667 108.38L400.187 113ZM400.787 98.06C400.787 103.4 404.087 107.06 409.127 107.06C414.287 107.06 417.347 103.34 417.347 98.06C417.347 92.78 414.287 89 409.127 89C404.087 89 400.787 92.72 400.787 98.06Z" fill="#1CC382"/>
</svg>
