<svg width="384" height="93" viewBox="0 0 384 93" fill="none" xmlns="http://www.w3.org/2000/svg">
<path d="M0.85 7.35V1.45H28.65V7.35H17.95V38H11.55V7.35H0.85ZM35.793 38.65C30.543 38.65 27.343 35.6 27.343 30.95C27.343 26.4 30.643 23.55 36.493 23.1L43.893 22.55V22C43.893 18.65 41.893 17.3 38.793 17.3C35.193 17.3 33.193 18.8 33.193 21.4H27.993C27.993 16.05 32.393 12.55 39.093 12.55C45.743 12.55 49.843 16.15 49.843 23V38H44.493L44.043 34.35C42.993 36.9 39.643 38.65 35.793 38.65ZM37.793 34.05C41.543 34.05 43.943 31.8 43.943 28V26.7L38.793 27.1C34.993 27.45 33.543 28.7 33.543 30.7C33.543 32.95 35.043 34.05 37.793 34.05ZM61.9855 38H55.9355V0.799999H61.9855V38ZM74.5344 38H68.4844V0.799999H74.5344V23.65L84.1344 13.3H91.7844L82.3844 23.1L91.5844 38H84.5844L78.1344 27.6L74.5344 31.35V38ZM117.165 38H111.065V18.4H106.315V13.3H111.065V5.6H117.165V13.3H121.965V18.4H117.165V38ZM124.063 25.6C124.063 17.9 129.613 12.6 137.263 12.6C144.913 12.6 150.463 17.9 150.463 25.6C150.463 33.3 144.913 38.6 137.263 38.6C129.613 38.6 124.063 33.3 124.063 25.6ZM130.163 25.6C130.163 30.1 133.063 33.15 137.263 33.15C141.463 33.15 144.363 30.1 144.363 25.6C144.363 21.1 141.463 18.05 137.263 18.05C133.063 18.05 130.163 21.1 130.163 25.6ZM167.325 25.6C167.325 17.9 172.875 12.6 180.525 12.6C188.175 12.6 193.725 17.9 193.725 25.6C193.725 33.3 188.175 38.6 180.525 38.6C172.875 38.6 167.325 33.3 167.325 25.6ZM173.425 25.6C173.425 30.1 176.325 33.15 180.525 33.15C184.725 33.15 187.625 30.1 187.625 25.6C187.625 21.1 184.725 18.05 180.525 18.05C176.325 18.05 173.425 21.1 173.425 25.6ZM214.724 13.3H220.824V38H215.174L214.724 34.7C213.224 37.05 210.024 38.65 206.724 38.65C201.024 38.65 197.674 34.8 197.674 28.75V13.3H203.774V26.6C203.774 31.3 205.624 33.2 209.024 33.2C212.874 33.2 214.724 30.95 214.724 26.25V13.3ZM242.625 13.2V18.85H240.375C235.975 18.85 233.225 21.2 233.225 26V38H227.125V13.35H232.875L233.225 16.95C234.275 14.5 236.625 12.85 239.925 12.85C240.775 12.85 241.625 12.95 242.625 13.2ZM14.2 81.65C6.85 81.65 1.7 76.3 1.7 68.65C1.7 60.9 6.75 55.55 14 55.55C21.4 55.55 26.1 60.5 26.1 68.2V70.05L7.5 70.1C7.95 74.45 10.25 76.65 14.3 76.65C17.65 76.65 19.85 75.35 20.55 73H26.2C25.15 78.4 20.65 81.65 14.2 81.65ZM14.05 60.55C10.45 60.55 8.25 62.5 7.65 66.2H20.05C20.05 62.8 17.7 60.55 14.05 60.55ZM34.159 81H27.209L35.709 68.9L27.209 56.3H34.309L39.759 64.7L45.009 56.3H51.859L43.459 68.8L51.609 81H44.609L39.359 72.85L34.159 81ZM55.4938 92.45V56.3H61.1438L61.5438 60.05C63.0438 57.2 66.2938 55.55 70.0438 55.55C76.9938 55.55 81.5938 60.6 81.5938 68.35C81.5938 76.05 77.3938 81.65 70.0438 81.65C66.3438 81.65 63.1438 80.2 61.5938 77.7V92.45H55.4938ZM61.6438 68.65C61.6438 73.1 64.3938 76.15 68.5938 76.15C72.8938 76.15 75.4438 73.05 75.4438 68.65C75.4438 64.25 72.8938 61.1 68.5938 61.1C64.3938 61.1 61.6438 64.2 61.6438 68.65ZM97.5008 81.65C90.1508 81.65 85.0008 76.3 85.0008 68.65C85.0008 60.9 90.0508 55.55 97.3008 55.55C104.701 55.55 109.401 60.5 109.401 68.2V70.05L90.8008 70.1C91.2508 74.45 93.5508 76.65 97.6008 76.65C100.951 76.65 103.151 75.35 103.851 73H109.501C108.451 78.4 103.951 81.65 97.5008 81.65ZM97.3508 60.55C93.7508 60.55 91.5508 62.5 90.9508 66.2H103.351C103.351 62.8 101.001 60.55 97.3508 60.55ZM129.783 56.2V61.85H127.533C123.133 61.85 120.383 64.2 120.383 69V81H114.283V56.35H120.033L120.383 59.95C121.433 57.5 123.783 55.85 127.083 55.85C127.933 55.85 128.783 55.95 129.783 56.2ZM143.288 81H137.188V61.4H132.438V56.3H137.188V48.6H143.288V56.3H148.088V61.4H143.288V81Z" fill="#18181B"/>
<path d="M180.857 56.2V61.85H178.607C174.207 61.85 171.457 64.2 171.457 69V81H165.357V56.35H171.107L171.457 59.95C172.507 57.5 174.857 55.85 178.157 55.85C179.007 55.85 179.857 55.95 180.857 56.2ZM195.206 81.65C187.856 81.65 182.706 76.3 182.706 68.65C182.706 60.9 187.756 55.55 195.006 55.55C202.406 55.55 207.106 60.5 207.106 68.2V70.05L188.506 70.1C188.956 74.45 191.256 76.65 195.306 76.65C198.656 76.65 200.856 75.35 201.556 73H207.206C206.156 78.4 201.656 81.65 195.206 81.65ZM195.056 60.55C191.456 60.55 189.256 62.5 188.656 66.2H201.056C201.056 62.8 198.706 60.55 195.056 60.55ZM210.538 68.6C210.538 60.95 215.588 55.55 222.888 55.55C229.638 55.55 234.238 59.3 234.888 65.25H228.788C228.088 62.45 226.038 61 223.138 61C219.238 61 216.638 63.95 216.638 68.6C216.638 73.25 219.038 76.15 222.938 76.15C225.988 76.15 228.138 74.65 228.788 71.95H234.938C234.188 77.7 229.388 81.65 222.938 81.65C215.438 81.65 210.538 76.45 210.538 68.6ZM254.978 56.2V61.85H252.728C248.328 61.85 245.578 64.2 245.578 69V81H239.478V56.35H245.228L245.578 59.95C246.628 57.5 248.978 55.85 252.278 55.85C253.128 55.85 253.978 55.95 254.978 56.2ZM275.857 56.3H281.957V81H276.307L275.857 77.7C274.357 80.05 271.157 81.65 267.857 81.65C262.157 81.65 258.807 77.8 258.807 71.75V56.3H264.907V69.6C264.907 74.3 266.757 76.2 270.157 76.2C274.007 76.2 275.857 73.95 275.857 69.25V56.3ZM291.307 51.35C289.207 51.35 287.557 49.7 287.557 47.65C287.557 45.6 289.207 44 291.307 44C293.307 44 294.957 45.6 294.957 47.65C294.957 49.7 293.307 51.35 291.307 51.35ZM288.257 81V56.3H294.357V81H288.257ZM309.06 81H302.96V61.4H298.21V56.3H302.96V48.6H309.06V56.3H313.86V61.4H309.06V81ZM328.458 81.65C321.108 81.65 315.958 76.3 315.958 68.65C315.958 60.9 321.008 55.55 328.258 55.55C335.658 55.55 340.358 60.5 340.358 68.2V70.05L321.758 70.1C322.208 74.45 324.508 76.65 328.558 76.65C331.908 76.65 334.108 75.35 334.808 73H340.458C339.408 78.4 334.908 81.65 328.458 81.65ZM328.308 60.55C324.708 60.55 322.508 62.5 321.908 66.2H334.308C334.308 62.8 331.958 60.55 328.308 60.55ZM360.74 56.2V61.85H358.49C354.09 61.85 351.34 64.2 351.34 69V81H345.24V56.35H350.99L351.34 59.95C352.39 57.5 354.74 55.85 358.04 55.85C358.89 55.85 359.74 55.95 360.74 56.2ZM362.969 73.5H368.769C368.819 75.65 370.419 77 373.219 77C376.069 77 377.619 75.85 377.619 74.05C377.619 72.8 376.969 71.9 374.769 71.4L370.319 70.35C365.869 69.35 363.719 67.25 363.719 63.3C363.719 58.45 367.819 55.55 373.519 55.55C379.069 55.55 382.819 58.75 382.869 63.55H377.069C377.019 61.45 375.619 60.1 373.269 60.1C370.869 60.1 369.469 61.2 369.469 63.05C369.469 64.45 370.569 65.35 372.669 65.85L377.119 66.9C381.269 67.85 383.369 69.75 383.369 73.55C383.369 78.55 379.119 81.65 373.019 81.65C366.869 81.65 362.969 78.35 362.969 73.5Z" fill="#1CC382"/>
</svg>
