<svg width="24" height="24" viewBox="0 0 24 24" fill="none" xmlns="http://www.w3.org/2000/svg">
<path id="Vector" d="M20 0C21.0609 0 22.0783 0.421427 22.8284 1.17157C23.5786 1.92172 24 2.93913 24 4V20C24 21.0609 23.5786 22.0783 22.8284 22.8284C22.0783 23.5786 21.0609 24 20 24H4C2.93913 24 1.92172 23.5786 1.17157 22.8284C0.421427 22.0783 0 21.0609 0 20V4C0 2.93913 0.421427 1.92172 1.17157 1.17157C1.92172 0.421427 2.93913 0 4 0H20ZM20 2.66667H4C3.64638 2.66667 3.30724 2.80714 3.05719 3.05719C2.80714 3.30724 2.66667 3.64638 2.66667 4V20C2.66667 20.3536 2.80714 20.6928 3.05719 20.9428C3.30724 21.1929 3.64638 21.3333 4 21.3333H20C20.3536 21.3333 20.6928 21.1929 20.9428 20.9428C21.1929 20.6928 21.3333 20.3536 21.3333 20V4C21.3333 3.64638 21.1929 3.30724 20.9428 3.05719C20.6928 2.80714 20.3536 2.66667 20 2.66667ZM6.66667 9.33333C6.99324 9.33338 7.30845 9.45327 7.5525 9.67029C7.79654 9.8873 7.95246 10.1863 7.99067 10.5107L8 10.6667V17.3333C7.99962 17.6732 7.86949 18 7.6362 18.2472C7.40291 18.4943 7.08406 18.643 6.74481 18.6629C6.40555 18.6828 6.07149 18.5724 5.81089 18.3543C5.55029 18.1362 5.3828 17.8268 5.34267 17.4893L5.33333 17.3333V10.6667C5.33333 10.313 5.47381 9.97391 5.72386 9.72386C5.97391 9.47381 6.31305 9.33333 6.66667 9.33333ZM10.6667 8C10.9789 7.99995 11.2813 8.1095 11.5211 8.30955C11.7608 8.5096 11.9228 8.78745 11.9787 9.09467C12.247 8.93908 12.5244 8.79972 12.8093 8.67733C13.6987 8.29733 15.0307 8.088 16.2333 8.46533C16.864 8.66533 17.4973 9.03867 17.9667 9.67467C18.3867 10.2413 18.6133 10.9307 18.6587 11.7053L18.6667 12V17.3333C18.6663 17.6732 18.5362 18 18.3029 18.2472C18.0696 18.4943 17.7507 18.643 17.4115 18.6629C17.0722 18.6828 16.7382 18.5724 16.4776 18.3543C16.217 18.1362 16.0495 17.8268 16.0093 17.4893L16 17.3333V12C16 11.56 15.8933 11.3547 15.824 11.26C15.7245 11.1362 15.5873 11.0482 15.4333 11.0093C14.9693 10.8627 14.3013 10.94 13.8573 11.1293C13.1907 11.4147 12.58 11.8627 12.164 12.2773L12 12.4533V17.3333C11.9996 17.6732 11.8695 18 11.6362 18.2472C11.4029 18.4943 11.0841 18.643 10.7448 18.6629C10.4056 18.6828 10.0715 18.5724 9.81089 18.3543C9.55029 18.1362 9.3828 17.8268 9.34267 17.4893L9.33333 17.3333V9.33333C9.33333 8.97971 9.47381 8.64057 9.72386 8.39052C9.97391 8.14048 10.313 8 10.6667 8ZM6.66667 5.33333C7.02029 5.33333 7.35943 5.47381 7.60948 5.72386C7.85952 5.97391 8 6.31305 8 6.66667C8 7.02029 7.85952 7.35943 7.60948 7.60948C7.35943 7.85952 7.02029 8 6.66667 8C6.31305 8 5.97391 7.85952 5.72386 7.60948C5.47381 7.35943 5.33333 7.02029 5.33333 6.66667C5.33333 6.31305 5.47381 5.97391 5.72386 5.72386C5.97391 5.47381 6.31305 5.33333 6.66667 5.33333Z" fill="white"/>
</svg>
