<svg width="18" height="22" viewBox="0 0 18 22" fill="none" xmlns="http://www.w3.org/2000/svg">
<path id="Vector" d="M9.00001 0.103027C6.81276 0.105615 4.71584 0.978169 3.16923 2.52928C1.62261 4.0804 0.752589 6.18342 0.750009 8.37703C0.747389 10.1696 1.33124 11.9136 2.41201 13.3414C2.41201 13.3414 2.63701 13.6385 2.67376 13.6814L9.00001 21.1641L15.3293 13.6777C15.3623 13.6378 15.588 13.3414 15.588 13.3414L15.5888 13.3392C16.669 11.912 17.2526 10.1688 17.25 8.37703C17.2474 6.18342 16.3774 4.0804 14.8308 2.52928C13.2842 0.978169 11.1873 0.105615 9.00001 0.103027ZM9.00001 11.3858C8.40666 11.3858 7.82665 11.2093 7.3333 10.8787C6.83995 10.5481 6.45543 10.0782 6.22837 9.52842C6.00131 8.97865 5.9419 8.37369 6.05765 7.79006C6.17341 7.20642 6.45913 6.67032 6.87869 6.24954C7.29825 5.82876 7.83279 5.54221 8.41474 5.42611C8.99668 5.31002 9.59988 5.3696 10.1481 5.59733C10.6962 5.82505 11.1648 6.21069 11.4944 6.70547C11.8241 7.20025 12 7.78196 12 8.37703C11.999 9.17469 11.6826 9.93939 11.1202 10.5034C10.5578 11.0675 9.79535 11.3848 9.00001 11.3858Z" fill="white"/>
</svg>
