<svg width="56" height="56" viewBox="0 0 56 56" fill="none" xmlns="http://www.w3.org/2000/svg">
<g id="ic:outline-medical-services">
<g id="Group 1000001782">
<path id="Vector" d="M47 14.3333H37.6667V9.66667C37.6667 7.1 35.5667 5 33 5H23.6667C21.1 5 19 7.1 19 9.66667V14.3333H9.66667C7.1 14.3333 5 16.4333 5 19V47C5 49.5667 7.1 51.6667 9.66667 51.6667H47C49.5667 51.6667 51.6667 49.5667 51.6667 47V19C51.6667 16.4333 49.5667 14.3333 47 14.3333ZM23.6667 9.66667H33V14.3333H23.6667V9.66667ZM47 47H9.66667V19H47V47Z" fill="#196AE5"/>
<path id="Vector_2" d="M30.3327 23.3333H25.666V30.3333H18.666V34.9999H25.666V41.9999H30.3327V34.9999H37.3327V30.3333H30.3327V23.3333Z" fill="#196AE5"/>
</g>
</g>
</svg>
