<svg width="50" height="47" viewBox="0 0 50 47" fill="none" xmlns="http://www.w3.org/2000/svg">
<g id="Group 1000003119">
<path id="Vector" d="M27.1709 47H8.82909C6.48747 47 4.24175 46.1571 2.58598 44.6569C0.930211 43.1566 0 41.1217 0 39C0 36.8783 0.930211 34.8434 2.58598 33.3431C4.24175 31.8429 6.48747 31 8.82909 31H27.1709C29.5125 31 31.7582 31.8429 33.414 33.3431C35.0698 34.8434 36 36.8783 36 39C36 41.1217 35.0698 43.1566 33.414 44.6569C31.7582 46.1571 29.5125 47 27.1709 47ZM8.82909 33.0202C7.96243 33.0202 7.10424 33.1749 6.30355 33.4754C5.50286 33.7759 4.77533 34.2164 4.16251 34.7716C3.54969 35.3269 3.06358 35.9861 2.73193 36.7116C2.40027 37.4371 2.22956 38.2147 2.22956 39C2.22956 39.7853 2.40027 40.5629 2.73193 41.2884C3.06358 42.0139 3.54969 42.6731 4.16251 43.2284C4.77533 43.7836 5.50286 44.2241 6.30355 44.5246C7.10424 44.8251 7.96243 44.9798 8.82909 44.9798H27.1709C28.9212 44.9798 30.5998 44.3498 31.8375 43.2284C33.0751 42.1069 33.7704 40.5859 33.7704 39C33.7704 37.4141 33.0751 35.8931 31.8375 34.7716C30.5998 33.6502 28.9212 33.0202 27.1709 33.0202H8.82909Z" fill="#196AE5"/>
<path id="Vector_2" d="M18.1782 43.8296C18.0295 43.8315 17.8819 43.8059 17.7442 43.7545C17.6065 43.703 17.4814 43.6267 17.3763 43.53C17.2712 43.4333 17.1882 43.3182 17.1322 43.1916C17.0763 43.0649 17.0485 42.9292 17.0505 42.7924V32.4758C17.0322 32.3305 17.0474 32.1833 17.0954 32.0438C17.1433 31.9043 17.2228 31.7757 17.3286 31.6664C17.4343 31.5572 17.5641 31.4698 17.7092 31.4099C17.8543 31.35 18.0116 31.3191 18.1706 31.3191C18.3297 31.3191 18.487 31.35 18.6321 31.4099C18.7772 31.4698 18.9069 31.5572 19.0127 31.6664C19.1185 31.7757 19.198 31.9043 19.2459 32.0438C19.2938 32.1833 19.3091 32.3305 19.2908 32.4758V42.7924C19.2928 42.928 19.2655 43.0626 19.2105 43.1883C19.1554 43.3141 19.0738 43.4285 18.9703 43.525C18.8667 43.6215 18.7434 43.6981 18.6075 43.7504C18.4715 43.8027 18.3255 43.8296 18.1782 43.8296Z" fill="#196AE5"/>
<path id="Vector_3" d="M31.8243 35.9984C31.6523 35.9981 31.483 35.9536 31.3312 35.8689C31.1794 35.7841 31.0497 35.6617 30.9534 35.5122C30.8097 35.2775 30.7573 34.9939 30.807 34.7198C30.8566 34.4457 31.0045 34.2021 31.2203 34.0389C31.5273 33.8165 31.8141 33.565 32.0772 33.2875C32.3509 33.0112 32.5958 32.705 32.8076 32.3741C33.6311 31.1152 34.0089 29.5939 33.8755 28.0736C33.7421 26.5533 33.1059 25.1299 32.0772 24.0498L19.8142 11.1878C19.235 10.5803 18.5473 10.0984 17.7905 9.76957C17.0337 9.44078 16.2226 9.27155 15.4035 9.27155C13.7491 9.27155 12.1625 9.96085 10.9927 11.1878C9.82293 12.4147 9.16574 14.0788 9.16574 15.814C9.16574 17.5492 9.82293 19.2133 10.9927 20.4402L21.6122 31.5932C21.7116 31.6948 21.7906 31.8162 21.8445 31.9503C21.8985 32.0844 21.9262 32.2285 21.9262 32.3741C21.9262 32.5196 21.8985 32.6637 21.8445 32.7978C21.7906 32.9319 21.7116 33.0534 21.6122 33.1549C21.4147 33.3619 21.1469 33.4781 20.8677 33.4781C20.5885 33.4781 20.3208 33.3619 20.1232 33.1549L9.50376 22.0019C8.7161 21.1923 8.08928 20.227 7.65954 19.1617C7.2298 18.0964 7.00568 16.9524 7.00011 15.7957C6.99454 14.639 7.20763 13.4926 7.62709 12.4229C8.04655 11.3531 8.66406 10.3812 9.44387 9.56325C10.2237 8.74534 11.1504 8.09769 12.1703 7.65774C13.1902 7.21779 14.2832 6.99427 15.386 7.00011C16.4888 7.00595 17.5796 7.24104 18.5952 7.69177C19.6109 8.14251 20.5313 8.79994 21.3032 9.62607L33.5521 22.4881C34.9283 23.9297 35.7812 25.8302 35.9633 27.8612C36.1454 29.8923 35.6453 31.9263 34.5494 33.6117C34.2535 34.0597 33.9197 34.4789 33.5521 34.864C33.1988 35.2291 32.8183 35.5641 32.4143 35.8658C32.2321 35.9636 32.0287 36.0093 31.8243 35.9984Z" fill="#196AE5"/>
<path id="Vector_4" d="M19.2428 25.5568C19.0253 25.5794 18.8067 25.57 18.5996 25.5291C18.3925 25.4881 18.2012 25.4165 18.037 25.3184C17.704 25.122 17.4988 24.8309 17.4664 24.5092C17.434 24.1875 17.5772 23.8614 17.8643 23.6025L28.6603 13.8829C28.9526 13.6368 29.356 13.4783 29.7855 13.4407C30.215 13.4031 30.6371 13.4893 30.9628 13.6813C31.2885 13.8732 31.4925 14.1558 31.5317 14.4695C31.5709 14.7833 31.4423 15.1037 31.173 15.3633L20.377 25.0829C20.2364 25.2125 20.0634 25.3213 19.8684 25.4027C19.6735 25.4841 19.4607 25.5366 19.2428 25.5568Z" fill="#196AE5"/>
<path id="Vector_5" d="M39.9924 36C37.8374 35.996 35.756 35.2385 34.1288 33.8662C33.9048 33.6712 33.7684 33.3988 33.7486 33.1073C33.7287 32.8158 33.8271 32.5283 34.0227 32.3064C34.1197 32.1974 34.2381 32.1083 34.3708 32.0441C34.5035 31.9799 34.6481 31.9419 34.7961 31.9323C34.944 31.9227 35.0924 31.9418 35.2328 31.9883C35.3731 32.0348 35.5026 32.1079 35.6137 32.2034C36.8272 33.2302 38.3829 33.7949 39.9924 33.7926C41.7661 33.7927 43.4681 33.1124 44.728 31.8998C45.9879 30.6872 46.7037 29.0404 46.7197 27.3177V9.09971C46.7629 8.21658 46.6211 7.33411 46.3029 6.50576C45.9846 5.67741 45.4967 4.9204 44.8684 4.28057C44.2402 3.64074 43.4848 3.1314 42.648 2.78339C41.8112 2.43538 40.9103 2.25594 40 2.25594C39.0897 2.25594 38.1888 2.43538 37.352 2.78339C36.5152 3.1314 35.7598 3.64074 35.1316 4.28057C34.5033 4.9204 34.0154 5.67741 33.6971 6.50576C33.3789 7.33411 33.2371 8.21658 33.2803 9.09971V21.5786C33.2803 21.8713 33.1606 22.1521 32.9475 22.359C32.7344 22.566 32.4453 22.6823 32.1439 22.6823C31.8426 22.6823 31.5535 22.566 31.3404 22.359C31.1273 22.1521 31.0076 21.8713 31.0076 21.5786V9.09971C30.9578 7.92261 31.1536 6.74789 31.5831 5.64612C32.0125 4.54435 32.6669 3.53827 33.5068 2.68832C34.3468 1.83837 35.3549 1.1621 36.4707 0.700122C37.5866 0.238145 38.787 0 40 0C41.213 0 42.4134 0.238145 43.5293 0.700122C44.6451 1.1621 45.6532 1.83837 46.4932 2.68832C47.3331 3.53827 47.9875 4.54435 48.4169 5.64612C48.8464 6.74789 49.0422 7.92261 48.9924 9.09971V27.3177C48.953 29.6186 47.9903 31.8137 46.3093 33.4354C44.6282 35.0571 42.3617 35.9773 39.9924 36Z" fill="#196AE5"/>
<path id="Vector_6" d="M48.2926 18.0782H37.2393C37.0837 18.0951 36.9259 18.081 36.7764 18.0367C36.627 17.9924 36.4892 17.9189 36.3721 17.8211C36.2551 17.7233 36.1614 17.6033 36.0973 17.4692C36.0332 17.335 36 17.1896 36 17.0426C36 16.8955 36.0332 16.7501 36.0973 16.6159C36.1614 16.4818 36.2551 16.3618 36.3721 16.264C36.4892 16.1662 36.627 16.0928 36.7764 16.0484C36.9259 16.0041 37.0837 15.99 37.2393 16.0069H48.2926C48.4483 15.99 48.606 16.0041 48.7555 16.0484C48.905 16.0928 49.0427 16.1662 49.1598 16.264C49.2768 16.3618 49.3705 16.4818 49.4346 16.6159C49.4987 16.7501 49.5319 16.8955 49.5319 17.0426C49.5319 17.1896 49.4987 17.335 49.4346 17.4692C49.3705 17.6033 49.2768 17.7233 49.1598 17.8211C49.0427 17.9189 48.905 17.9924 48.7555 18.0367C48.606 18.081 48.4483 18.0951 48.2926 18.0782Z" fill="#196AE5"/>
</g>
</svg>
