<svg width="44" height="44" viewBox="0 0 44 44" fill="none" xmlns="http://www.w3.org/2000/svg">
<g id="tdesign:user-talk-1">
<path id="Vector" d="M15.5833 7.33341C14.8611 7.33341 14.1459 7.47568 13.4786 7.75208C12.8113 8.02848 12.205 8.43361 11.6942 8.94433C11.1835 9.45505 10.7784 10.0614 10.502 10.7287C10.2256 11.3959 10.0833 12.1111 10.0833 12.8334C10.0833 13.5557 10.2256 14.2709 10.502 14.9382C10.7784 15.6055 11.1835 16.2118 11.6942 16.7225C12.205 17.2332 12.8113 17.6384 13.4786 17.9148C14.1459 18.1912 14.8611 18.3334 15.5833 18.3334C17.042 18.3334 18.441 17.754 19.4724 16.7225C20.5039 15.6911 21.0833 14.2921 21.0833 12.8334C21.0833 11.3747 20.5039 9.97578 19.4724 8.94433C18.441 7.91288 17.042 7.33341 15.5833 7.33341ZM6.41667 12.8334C6.41667 10.4023 7.38244 8.07069 9.10152 6.3516C10.8206 4.63252 13.1522 3.66675 15.5833 3.66675C18.0145 3.66675 20.3461 4.63252 22.0651 6.3516C23.7842 8.07069 24.75 10.4023 24.75 12.8334C24.75 15.2646 23.7842 17.5961 22.0651 19.3152C20.3461 21.0343 18.0145 22.0001 15.5833 22.0001C13.1522 22.0001 10.8206 21.0343 9.10152 19.3152C7.38244 17.5961 6.41667 15.2646 6.41667 12.8334ZM37.7172 10.3547L38.6283 11.9442C39.7456 13.89 40.3333 16.0947 40.3326 18.3385C40.332 20.5822 39.7431 22.7866 38.6247 24.7317L37.7098 26.3212L34.5327 24.4934L35.4457 22.9039C36.2447 21.5147 36.6655 19.9402 36.6661 18.3376C36.6667 16.7349 36.2472 15.1601 35.4493 13.7702L34.5363 12.1807L37.7172 10.3547ZM32.153 13.5484L33.0642 15.1397C33.6229 16.1124 33.917 17.2145 33.917 18.3362C33.917 19.4579 33.6229 20.56 33.0642 21.5326L32.1475 23.1221L28.9703 21.2942L29.8833 19.7047C30.1232 19.2878 30.2494 18.8153 30.2494 18.3343C30.2494 17.8534 30.1232 17.3808 29.8833 16.9639L28.9722 15.3744L32.153 13.5484ZM0 34.8334C0 32.4023 0.965771 30.0707 2.68485 28.3516C4.40394 26.6325 6.73552 25.6667 9.16667 25.6667H22C24.4312 25.6667 26.7627 26.6325 28.4818 28.3516C30.2009 30.0707 31.1667 32.4023 31.1667 34.8334V38.5001H27.5V34.8334C27.5 33.3747 26.9205 31.9758 25.8891 30.9443C24.8576 29.9129 23.4587 29.3334 22 29.3334H9.16667C7.70798 29.3334 6.30903 29.9129 5.27758 30.9443C4.24613 31.9758 3.66667 33.3747 3.66667 34.8334V38.5001H0V34.8334Z" fill="#111111"/>
</g>
</svg>
